# xmcd
#
# Track frame offsets:
#	150
#	21742
#	42434
#	56768
#	80568
#	102036
#	123555
#	143189
#	165644
#	187562
#	210431
#	232742
#	249221
#	270234
#	290764
#
# Disc length: 4135 seconds
#
# Revision: 0
# Processed by: cddbd v1.5.2PL0 Copyright (c) Steve Scherf et al.
# Submitted via: EasyCDDAExtractor 16.0.9.1
#
DISCID=c910250f
DTITLE=Various Artist - AsiaCD277 - Liên Khúc Đón Xuân
DYEAR=2009
DGENRE=Pop
TTITLE0=Thiên Kim, Đoàn Phi, Quốc Khanh and Ánh Minh - Liên Khúc Xuân: Xuân Yêu 
TTITLE0=Thương and Điệp Khúc Mùa Xuân
TTITLE1=Ngọc Huyền - Đón Xuân Này Nhớ Xuân Xưa
TTITLE2=Đoàn Phi and Thủy Hương - Thiên Duyên Tiền Định
TTITLE3=Đan Nguyên - Cám Ơn
TTITLE4=Băng Tâm - Gái Xuân
TTITLE5=Nguyên Khang - Em Đến Thăm Anh Đêm 30
TTITLE6=Hồ Hoàng Yến - Mộng Chiều Xuân
TTITLE7=Philip Huy - Đồn Vắng Chiều Xuân
TTITLE8=Y Phương - Anh Đã Thấy Mùa Xuân Chưa
TTITLE9=Nguyễn Hồng Nhung - Bến Xuân
TTITLE10=Lâm Nhật Tiến - Thư Xuân Hải Ngoại
TTITLE11=Đặng Thế Luân - Xuân Này Con Về Mẹ Ở Đâu
TTITLE12=Tuấn Vũ - Thư Xuân Ba Viết Cho Con
TTITLE13=Mỹ Huyền - Câu Chuyện Đầu Năm
TTITLE14=Tường Nguyên and Tường Khuê - Xuân Này Con Không Về
EXTD=
EXTT0=
EXTT1=
EXTT2=
EXTT3=
EXTT4=
EXTT5=
EXTT6=
EXTT7=
EXTT8=
EXTT9=
EXTT10=
EXTT11=
EXTT12=
EXTT13=
EXTT14=
PLAYORDER=
